<?xml version="1.0" encoding="utf-8" standalone="no"?>
<!DOCTYPE svg PUBLIC "-//W3C//DTD SVG 1.1//EN"
  "http://www.w3.org/Graphics/SVG/1.1/DTD/svg11.dtd">
<svg xmlns:xlink="http://www.w3.org/1999/xlink" width="487.790374pt" height="307.858577pt" viewBox="0 0 487.790374 307.858577" xmlns="http://www.w3.org/2000/svg" version="1.1">
 <title>NER analysis</title>
 <metadata>
  <rdf:RDF xmlns:dc="http://purl.org/dc/elements/1.1/" xmlns:cc="http://creativecommons.org/ns#" xmlns:rdf="http://www.w3.org/1999/02/22-rdf-syntax-ns#">
   <cc:Work>
    <dc:type rdf:resource="http://purl.org/dc/dcmitype/StillImage"/>
    <dc:title>NER analysis</dc:title>
    <dc:date>2026-10-02T15:21:10.077719</dc:date>
    <dc:format>image/svg+xml</dc:format>
    <dc:creator>
     <cc:Agent>
      <dc:title>lab.ner.analysis</dc:title>
     </cc:Agent>
    </dc:creator>
   </cc:Work>
  </rdf:RDF>
 </metadata>
 <defs>
  <style type="text/css">*{stroke-linejoin: round; stroke-linecap: butt}</style>
 </defs>
 <g id="figure_1">
  <g id="patch_1">
   <path d="M 0 307.858577 
L 487.790374 307.858577 
L 487.790374 0 
L 0 0 
z
" style="fill: #ffffff"/>
  </g>
  <g id="axes_1">
   <g id="patch_2">
    <path d="M 135.779063 270.538577 
L 396.501429 270.538577 
L 396.501429 33.818047 
L 135.779063 33.818047 
z
" style="fill: #ffffff"/>
   </g>
   <g id="LineCollection_1">
    <path d="M 172.15216 253.749887 
L 172.15216 253.749887 
" clip-path="url(#p02147741f0)" style="fill: none; stroke: #d9d9d9; stroke-width: 3"/>
   </g>
   <g id="LineCollection_2">
    <path d="M 172.15216 220.172506 
L 172.15216 220.172506 
" clip-path="url(#p02147741f0)" style="fill: none; stroke: #d9d9d9; stroke-width: 3"/>
   </g>
   <g id="LineCollection_3">
    <path d="M 172.15216 186.595126 
L 202.050847 186.595126 
" clip-path="url(#p02147741f0)" style="fill: none; stroke: #d9d9d9; stroke-width: 3"/>
   </g>
   <g id="LineCollection_4">
    <path d="M 172.15216 153.017746 
L 264.539829 153.017746 
" clip-path="url(#p02147741f0)" style="fill: none; stroke: #d9d9d9; stroke-width: 3"/>
   </g>
   <g id="LineCollection_5">
    <path d="M 172.15216 119.440366 
L 268.104393 119.440366 
" clip-path="url(#p02147741f0)" style="fill: none; stroke: #d9d9d9; stroke-width: 3"/>
   </g>
   <g id="LineCollection_6">
    <path d="M 172.15216 85.862986 
L 396.501429 85.862986 
" clip-path="url(#p02147741f0)" style="fill: none; stroke: #d9d9d9; stroke-width: 3"/>
   </g>
   <g id="matplotlib.axis_1">
    <g id="xtick_1">
     <g id="line2d_1">
      <defs>
       <path id="ma5681bf785" d="M 0 0 
L 0 4 
" style="stroke: #111111; stroke-width: 0.8"/>
      </defs>
      <g>
       <use xlink:href="#ma5681bf785" x="141.889743" y="270.538577" style="fill: #111111; stroke: #111111; stroke-width: 0.8"/>
      </g>
     </g>
     <g id="text_1">
      <text style="font-size: 9px; font-family: 'Arial', 'Helvetica', 'DejaVu Sans', sans-serif; text-anchor: middle" x="141.889743" y="287.376467" transform="rotate(-0 141.889743 287.376467)">0.65</text>
     </g>
    </g>
    <g id="xtick_2">
     <g id="line2d_2">
      <g>
       <use xlink:href="#ma5681bf785" x="178.262841" y="270.538577" style="fill: #111111; stroke: #111111; stroke-width: 0.8"/>
      </g>
     </g>
     <g id="text_2">
      <text style="font-size: 9px; font-family: 'Arial', 'Helvetica', 'DejaVu Sans', sans-serif; text-anchor: middle" x="178.262841" y="287.376467" transform="rotate(-0 178.262841 287.376467)">0.70</text>
     </g>
    </g>
    <g id="xtick_3">
     <g id="line2d_3">
      <g>
       <use xlink:href="#ma5681bf785" x="214.635939" y="270.538577" style="fill: #111111; stroke: #111111; stroke-width: 0.8"/>
      </g>
     </g>
     <g id="text_3">
      <text style="font-size: 9px; font-family: 'Arial', 'Helvetica', 'DejaVu Sans', sans-serif; text-anchor: middle" x="214.635939" y="287.376467" transform="rotate(-0 214.635939 287.376467)">0.75</text>
     </g>
    </g>
    <g id="xtick_4">
     <g id="line2d_4">
      <g>
       <use xlink:href="#ma5681bf785" x="251.009037" y="270.538577" style="fill: #111111; stroke: #111111; stroke-width: 0.8"/>
      </g>
     </g>
     <g id="text_4">
      <text style="font-size: 9px; font-family: 'Arial', 'Helvetica', 'DejaVu Sans', sans-serif; text-anchor: middle" x="251.009037" y="287.376467" transform="rotate(-0 251.009037 287.376467)">0.80</text>
     </g>
    </g>
    <g id="xtick_5">
     <g id="line2d_5">
      <g>
       <use xlink:href="#ma5681bf785" x="287.382135" y="270.538577" style="fill: #111111; stroke: #111111; stroke-width: 0.8"/>
      </g>
     </g>
     <g id="text_5">
      <text style="font-size: 9px; font-family: 'Arial', 'Helvetica', 'DejaVu Sans', sans-serif; text-anchor: middle" x="287.382135" y="287.376467" transform="rotate(-0 287.382135 287.376467)">0.85</text>
     </g>
    </g>
    <g id="xtick_6">
     <g id="line2d_6">
      <g>
       <use xlink:href="#ma5681bf785" x="323.755233" y="270.538577" style="fill: #111111; stroke: #111111; stroke-width: 0.8"/>
      </g>
     </g>
     <g id="text_6">
      <text style="font-size: 9px; font-family: 'Arial', 'Helvetica', 'DejaVu Sans', sans-serif; text-anchor: middle" x="323.755233" y="287.376467" transform="rotate(-0 323.755233 287.376467)">0.90</text>
     </g>
    </g>
    <g id="xtick_7">
     <g id="line2d_7">
      <g>
       <use xlink:href="#ma5681bf785" x="360.128331" y="270.538577" style="fill: #111111; stroke: #111111; stroke-width: 0.8"/>
      </g>
     </g>
     <g id="text_7">
      <text style="font-size: 9px; font-family: 'Arial', 'Helvetica', 'DejaVu Sans', sans-serif; text-anchor: middle" x="360.128331" y="287.376467" transform="rotate(-0 360.128331 287.376467)">0.95</text>
     </g>
    </g>
    <g id="xtick_8">
     <g id="line2d_8">
      <g>
       <use xlink:href="#ma5681bf785" x="396.501429" y="270.538577" style="fill: #111111; stroke: #111111; stroke-width: 0.8"/>
      </g>
     </g>
     <g id="text_8">
      <text style="font-size: 9px; font-family: 'Arial', 'Helvetica', 'DejaVu Sans', sans-serif; text-anchor: middle" x="396.501429" y="287.376467" transform="rotate(-0 396.501429 287.376467)">1.00</text>
     </g>
    </g>
    <g id="text_9">
     <text style="font-size: 10px; font-family: 'Arial', 'Helvetica', 'DejaVu Sans', sans-serif; text-anchor: middle" x="266.140246" y="301.136233" transform="rotate(-0 266.140246 301.136233)">STRICT F1</text>
    </g>
   </g>
   <g id="matplotlib.axis_2">
    <g id="ytick_1">
     <g id="line2d_9">
      <defs>
       <path id="mc41c73b81f" d="M 0 0 
L -4 0 
" style="stroke: #111111; stroke-width: 0.8"/>
      </defs>
      <g>
       <use xlink:href="#mc41c73b81f" x="135.779063" y="253.749887" style="fill: #111111; stroke: #111111; stroke-width: 0.8"/>
      </g>
     </g>
     <g id="text_10">
      <text style="font-size: 9px; font-family: 'Arial', 'Helvetica', 'DejaVu Sans', sans-serif; text-anchor: end" x="126.779063" y="257.169183" transform="rotate(-0 126.779063 257.169183)">Fix label errors</text>
     </g>
    </g>
    <g id="ytick_2">
     <g id="line2d_10">
      <g>
       <use xlink:href="#mc41c73b81f" x="135.779063" y="220.172506" style="fill: #111111; stroke: #111111; stroke-width: 0.8"/>
      </g>
     </g>
     <g id="text_11">
      <text style="font-size: 9px; font-family: 'Arial', 'Helvetica', 'DejaVu Sans', sans-serif; text-anchor: end" x="126.779063" y="223.591803" transform="rotate(-0 126.779063 223.591803)">Fix boundary + label errors</text>
     </g>
    </g>
    <g id="ytick_3">
     <g id="line2d_11">
      <g>
       <use xlink:href="#mc41c73b81f" x="135.779063" y="186.595126" style="fill: #111111; stroke: #111111; stroke-width: 0.8"/>
      </g>
     </g>
     <g id="text_12">
      <text style="font-size: 9px; font-family: 'Arial', 'Helvetica', 'DejaVu Sans', sans-serif; text-anchor: end" x="126.779063" y="190.014423" transform="rotate(-0 126.779063 190.014423)">Fix boundary errors</text>
     </g>
    </g>
    <g id="ytick_4">
     <g id="line2d_12">
      <g>
       <use xlink:href="#mc41c73b81f" x="135.779063" y="153.017746" style="fill: #111111; stroke: #111111; stroke-width: 0.8"/>
      </g>
     </g>
     <g id="text_13">
      <text style="font-size: 9px; font-family: 'Arial', 'Helvetica', 'DejaVu Sans', sans-serif; text-anchor: end" x="126.779063" y="156.437043" transform="rotate(-0 126.779063 156.437043)">Remove spurious entities</text>
     </g>
    </g>
    <g id="ytick_5">
     <g id="line2d_13">
      <g>
       <use xlink:href="#mc41c73b81f" x="135.779063" y="119.440366" style="fill: #111111; stroke: #111111; stroke-width: 0.8"/>
      </g>
     </g>
     <g id="text_14">
      <text style="font-size: 9px; font-family: 'Arial', 'Helvetica', 'DejaVu Sans', sans-serif; text-anchor: end" x="126.779063" y="122.859663" transform="rotate(-0 126.779063 122.859663)">Recover missed entities</text>
     </g>
    </g>
    <g id="ytick_6">
     <g id="line2d_14">
      <g>
       <use xlink:href="#mc41c73b81f" x="135.779063" y="85.862986" style="fill: #111111; stroke: #111111; stroke-width: 0.8"/>
      </g>
     </g>
     <g id="text_15">
      <text style="font-size: 9px; font-family: 'Arial', 'Helvetica', 'DejaVu Sans', sans-serif; text-anchor: end" x="126.779063" y="89.282283" transform="rotate(-0 126.779063 89.282283)">Fix all diagnosable errors</text>
     </g>
    </g>
   </g>
   <g id="patch_3">
    <path d="M 135.779063 270.538577 
L 135.779063 33.818047 
" style="fill: none; stroke: #111111; stroke-width: 0.9; stroke-linejoin: miter; stroke-linecap: square"/>
   </g>
   <g id="patch_4">
    <path d="M 135.779063 270.538577 
L 396.501429 270.538577 
" style="fill: none; stroke: #111111; stroke-width: 0.9; stroke-linejoin: miter; stroke-linecap: square"/>
   </g>
   <g id="PathCollection_1">
    <defs>
     <path id="maa52b7c8c4" d="M 0 3.464102 
C 0.91869 3.464102 1.799877 3.099102 2.44949 2.44949 
C 3.099102 1.799877 3.464102 0.91869 3.464102 0 
C 3.464102 -0.91869 3.099102 -1.799877 2.44949 -2.44949 
C 1.799877 -3.099102 0.91869 -3.464102 0 -3.464102 
C -0.91869 -3.464102 -1.799877 -3.099102 -2.44949 -2.44949 
C -3.099102 -1.799877 -3.464102 -0.91869 -3.464102 0 
C -3.464102 0.91869 -3.099102 1.799877 -2.44949 2.44949 
C -1.799877 3.099102 -0.91869 3.464102 0 3.464102 
z
" style="stroke: #111111; stroke-width: 0.7"/>
    </defs>
    <g clip-path="url(#p02147741f0)">
     <use xlink:href="#maa52b7c8c4" x="172.15216" y="253.749887" style="fill: #8c8c8c; stroke: #111111; stroke-width: 0.7"/>
    </g>
   </g>
   <g id="text_16">
    <text style="font-weight: 700; font-size: 8.2px; font-family: 'Arial', 'Helvetica', 'DejaVu Sans', sans-serif; text-anchor: start" x="177.971856" y="255.879965" transform="rotate(-0 177.971856 255.879965)">0.692  (Δ +0.000)</text>
   </g>
   <g id="PathCollection_2">
    <g clip-path="url(#p02147741f0)">
     <use xlink:href="#maa52b7c8c4" x="172.15216" y="220.172506" style="fill: #8c8c8c; stroke: #111111; stroke-width: 0.7"/>
    </g>
   </g>
   <g id="text_17">
    <text style="font-weight: 700; font-size: 8.2px; font-family: 'Arial', 'Helvetica', 'DejaVu Sans', sans-serif; text-anchor: start" x="177.971856" y="222.302585" transform="rotate(-0 177.971856 222.302585)">0.692  (Δ +0.000)</text>
   </g>
   <g id="PathCollection_3">
    <g clip-path="url(#p02147741f0)">
     <use xlink:href="#maa52b7c8c4" x="172.15216" y="186.595126" style="fill: #8c8c8c; stroke: #111111; stroke-width: 0.7"/>
    </g>
   </g>
   <g id="text_18">
    <text style="font-weight: 700; font-size: 8.2px; font-family: 'Arial', 'Helvetica', 'DejaVu Sans', sans-serif; text-anchor: start" x="207.870543" y="188.725204" transform="rotate(-0 207.870543 188.725204)">0.733  (Δ +0.041)</text>
   </g>
   <g id="PathCollection_4">
    <g clip-path="url(#p02147741f0)">
     <use xlink:href="#maa52b7c8c4" x="172.15216" y="153.017746" style="fill: #8c8c8c; stroke: #111111; stroke-width: 0.7"/>
    </g>
   </g>
   <g id="text_19">
    <text style="font-weight: 700; font-size: 8.2px; font-family: 'Arial', 'Helvetica', 'DejaVu Sans', sans-serif; text-anchor: start" x="270.359525" y="155.147824" transform="rotate(-0 270.359525 155.147824)">0.819  (Δ +0.127)</text>
   </g>
   <g id="PathCollection_5">
    <g clip-path="url(#p02147741f0)">
     <use xlink:href="#maa52b7c8c4" x="172.15216" y="119.440366" style="fill: #8c8c8c; stroke: #111111; stroke-width: 0.7"/>
    </g>
   </g>
   <g id="text_20">
    <text style="font-weight: 700; font-size: 8.2px; font-family: 'Arial', 'Helvetica', 'DejaVu Sans', sans-serif; text-anchor: start" x="273.924088" y="121.570444" transform="rotate(-0 273.924088 121.570444)">0.824  (Δ +0.132)</text>
   </g>
   <g id="PathCollection_6">
    <g clip-path="url(#p02147741f0)">
     <use xlink:href="#maa52b7c8c4" x="172.15216" y="85.862986" style="fill: #8c8c8c; stroke: #111111; stroke-width: 0.7"/>
    </g>
   </g>
   <g id="text_21">
    <text style="font-weight: 700; font-size: 8.2px; font-family: 'Arial', 'Helvetica', 'DejaVu Sans', sans-serif; text-anchor: start" x="402.321124" y="87.993064" transform="rotate(-0 402.321124 87.993064)">1.000  (Δ +0.308)</text>
   </g>
   <g id="text_22">
    <text style="font-weight: 700; font-size: 12.5px; font-family: 'Arial', 'Helvetica', 'DejaVu Sans', sans-serif; text-anchor: start" x="135.779063" y="13.818047" transform="rotate(-0 135.779063 13.818047)">Counterfactual STRICT F1 error budget</text>
   </g>
   <g id="PathCollection_7">
    <defs>
     <path id="m0f73fef199" d="M 0 4.242641 
C 1.125161 4.242641 2.204391 3.795609 3 3 
C 3.795609 2.204391 4.242641 1.125161 4.242641 0 
C 4.242641 -1.125161 3.795609 -2.204391 3 -3 
C 2.204391 -3.795609 1.125161 -4.242641 0 -4.242641 
C -1.125161 -4.242641 -2.204391 -3.795609 -3 -3 
C -3.795609 -2.204391 -4.242641 -1.125161 -4.242641 0 
C -4.242641 1.125161 -3.795609 2.204391 -3 3 
C -2.204391 3.795609 -1.125161 4.242641 0 4.242641 
z
" style="stroke: #111111; stroke-width: 0.8"/>
    </defs>
    <g clip-path="url(#p02147741f0)">
     <use xlink:href="#m0f73fef199" x="172.15216" y="253.749887" style="fill: #009e73; stroke: #111111; stroke-width: 0.8"/>
    </g>
   </g>
   <g id="PathCollection_8">
    <g clip-path="url(#p02147741f0)">
     <use xlink:href="#m0f73fef199" x="172.15216" y="220.172506" style="fill: #009e73; stroke: #111111; stroke-width: 0.8"/>
    </g>
   </g>
   <g id="PathCollection_9">
    <g clip-path="url(#p02147741f0)">
     <use xlink:href="#m0f73fef199" x="202.050847" y="186.595126" style="fill: #009e73; stroke: #111111; stroke-width: 0.8"/>
    </g>
   </g>
   <g id="PathCollection_10">
    <g clip-path="url(#p02147741f0)">
     <use xlink:href="#m0f73fef199" x="264.539829" y="153.017746" style="fill: #009e73; stroke: #111111; stroke-width: 0.8"/>
    </g>
   </g>
   <g id="PathCollection_11">
    <g clip-path="url(#p02147741f0)">
     <use xlink:href="#m0f73fef199" x="268.104393" y="119.440366" style="fill: #009e73; stroke: #111111; stroke-width: 0.8"/>
    </g>
   </g>
   <g id="PathCollection_12">
    <g clip-path="url(#p02147741f0)">
     <use xlink:href="#m0f73fef199" x="396.501429" y="85.862986" style="fill: #009e73; stroke: #111111; stroke-width: 0.8"/>
    </g>
   </g>
   <g id="legend_1">
    <g id="line2d_15">
     <path d="M 144.455679 46.528275 
L 153.255679 46.528275 
L 162.055679 46.528275 
" style="fill: none; stroke: #000000; stroke-opacity: 0; stroke-width: 1.5; stroke-linecap: square"/>
     <defs>
      <path id="m9173aed70f" d="M 0 3 
C 0.795609 3 1.55874 2.683901 2.12132 2.12132 
C 2.683901 1.55874 3 0.795609 3 0 
C 3 -0.795609 2.683901 -1.55874 2.12132 -2.12132 
C 1.55874 -2.683901 0.795609 -3 0 -3 
C -0.795609 -3 -1.55874 -2.683901 -2.12132 -2.12132 
C -2.683901 -1.55874 -3 -0.795609 -3 0 
C -3 0.795609 -2.683901 1.55874 -2.12132 2.12132 
C -1.55874 2.683901 -0.795609 3 0 3 
z
" style="stroke: #111111"/>
     </defs>
     <g>
      <use xlink:href="#m9173aed70f" x="153.255679" y="46.528275" style="fill: #8c8c8c; stroke: #111111"/>
     </g>
    </g>
    <g id="text_23">
     <text style="font-size: 8.8px; font-family: 'Arial', 'Helvetica', 'DejaVu Sans', sans-serif; text-anchor: start" x="169.095679" y="49.608275" transform="rotate(-0 169.095679 49.608275)">Observed baseline</text>
    </g>
    <g id="line2d_16">
     <path d="M 268.692429 46.528275 
L 277.492429 46.528275 
L 286.292429 46.528275 
" style="fill: none; stroke: #000000; stroke-opacity: 0; stroke-width: 1.5; stroke-linecap: square"/>
     <defs>
      <path id="m64cc220e26" d="M 0 3.5 
C 0.928211 3.5 1.81853 3.131218 2.474874 2.474874 
C 3.131218 1.81853 3.5 0.928211 3.5 0 
C 3.5 -0.928211 3.131218 -1.81853 2.474874 -2.474874 
C 1.81853 -3.131218 0.928211 -3.5 0 -3.5 
C -0.928211 -3.5 -1.81853 -3.131218 -2.474874 -2.474874 
C -3.131218 -1.81853 -3.5 -0.928211 -3.5 0 
C -3.5 0.928211 -3.131218 1.81853 -2.474874 2.474874 
C -1.81853 3.131218 -0.928211 3.5 0 3.5 
z
" style="stroke: #111111"/>
     </defs>
     <g>
      <use xlink:href="#m64cc220e26" x="277.492429" y="46.528275" style="fill: #009e73; stroke: #111111"/>
     </g>
    </g>
    <g id="text_24">
     <text style="font-size: 8.8px; font-family: 'Arial', 'Helvetica', 'DejaVu Sans', sans-serif; text-anchor: start" x="293.332429" y="49.608275" transform="rotate(-0 293.332429 49.608275)">Counterfactual oracle</text>
    </g>
   </g>
  </g>
 </g>
 <defs>
  <clipPath id="p02147741f0">
   <rect x="135.779063" y="33.818047" width="260.722366" height="236.72053"/>
  </clipPath>
 </defs>
</svg>
